<svg t="1660743337868" class="icon" viewBox="0 0 1024 1024" version="1.1" xmlns="http://www.w3.org/2000/svg" p-id="1654" width="200" height="200"><path d="M347.84 767.744a32 32 0 0 0 45.248 0l274.176-274.24a32 32 0 1 0-45.248-45.248l-251.52 251.584L209.92 539.392a32 32 0 0 0-45.248 45.248z" fill="#575869" p-id="1655"></path><path d="M979.2 0H236.8a44.864 44.864 0 0 0-44.8 44.8V192H44.8a44.8 44.8 0 0 0-44.8 44.8v742.4a44.8 44.8 0 0 0 44.8 44.8h742.4a44.864 44.864 0 0 0 44.8-44.8V832h147.2a44.864 44.864 0 0 0 44.8-44.8V44.8a44.864 44.864 0 0 0-44.8-44.8zM768 960H64V256h704z m192-192h-128V236.8a44.864 44.864 0 0 0-44.8-44.8H256V64h704z" fill="#575869" p-id="1656"></path></svg>